<svg xmlns="http://www.w3.org/2000/svg" height="512" viewBox="0 0 497 497" width="512" xmlns:v="https://vecta.io/nano"><path d="M426.84 197.91v18.6c0 7.18-2.66 14.1-7.47 19.43a28.95 28.95 0 0 0 0 38.88c2.41 2.66 4.27 5.73 5.54 9.03a28.91 28.91 0 0 1 1.93 10.41V478.4c0 10.27-8.32 18.6-18.59 18.6H88.75c-10.27 0-18.59-8.33-18.59-18.6V294.26a29.02 29.02 0 0 1 7.47-19.44 28.95 28.95 0 0 0 0-38.88 28.95 28.95 0 0 1-7.47-19.43v-18.6c0-50.27 24.88-97.29 66.46-125.57L238.43 3.1A18.73 18.73 0 0 1 241 1.65a17.87 17.87 0 0 1 15 0 18.73 18.73 0 0 1 2.57 1.45l101.81 69.24c41.58 28.28 66.46 75.3 66.46 125.57z" fill="#aca6d6"/><g fill="#978ecb"><path d="M256 1.65v40.57c0 5.86-3.36 10.61-7.5 10.61s-7.5-4.75-7.5-10.61V1.65a17.87 17.87 0 0 1 15 0z"/><path d="M360.383 72.344L258.571 3.1c-5.609-3.815-12.84-4.1-18.7-.874a17.98 17.98 0 0 1 1.443.874l101.812 69.243a151.86 151.86 0 0 1 66.457 125.569v.763 17.83c0 7.181-2.661 14.106-7.47 19.439-9.96 11.045-9.96 27.833 0 38.878 4.809 5.333 7.47 12.258 7.47 19.439v184.144c0 10.27-8.325 18.595-18.595 18.595h17.257c10.27 0 18.595-8.325 18.595-18.595V294.261c0-7.181-2.661-14.106-7.47-19.439a29.03 29.03 0 0 1 0-38.878c4.809-5.333 7.47-12.258 7.47-19.439v-17.83-.763a151.86 151.86 0 0 0-66.457-125.568z"/></g><path d="M390.25 221.36c-13.871 20.562-13.87 47.483.002 68.051 3.062 4.54 4.588 9.942 4.588 15.418v36.281c0 8.332-8.007 116.057-8.007 116.057L147.61 465h-30.363a15.09 15.09 0 0 1-15.087-15.087V304.83c0-5.476 1.526-10.879 4.588-15.419 13.872-20.568 13.872-47.483 0-68.051-3.062-4.54-4.588-9.943-4.588-15.419v-8.03a119.77 119.77 0 0 1 52.45-99.11l88.287-60.039c3.382-2.3 7.825-2.3 11.207 0L342.39 98.8a119.77 119.77 0 0 1 52.45 99.11v8.028c0 5.478-1.527 10.881-4.59 15.422z" fill="#5a74d1"/><path d="M390.25 221.36a60.85 60.85 0 0 0 0 68.05c3.06 4.54 4.59 9.94 4.59 15.42v36.28c0 8.33-8.01 116.06-8.01 116.06h-18.55l8-116.06v-36.28c0-5.48-1.52-10.88-4.58-15.42a60.83 60.83 0 0 1-.01-68.05c3.07-4.54 4.59-9.94 4.59-15.42v-8.03a119.77 119.77 0 0 0-52.45-99.11l-84.61-57.54 3.68-2.5c3.38-2.3 7.82-2.3 11.2 0l88.29 60.04a119.77 119.77 0 0 1 52.45 99.11v8.03c0 5.48-1.53 10.88-4.59 15.42z" fill="#4f66d0"/><path d="M295.803 276.121a7.5 7.5 0 0 1-7.5-7.5v-37.293a7.5 7.5 0 1 1 15 0v37.293a7.5 7.5 0 0 1-7.5 7.5z" fill="#97da7b"/><path d="M354.053 341.109L295.8 346.5l-58.247-5.391V328.61a53.03 53.03 0 0 1 25.47-45.306l28.946-17.608a7.38 7.38 0 0 1 7.669 0l28.946 17.608a53.03 53.03 0 0 1 25.47 45.306v12.499z" fill="#fed2a4"/><path d="M328.583 283.305l-28.946-17.608a7.38 7.38 0 0 0-7.669 0l-6.616 4.024 22.33 13.584a53.03 53.03 0 0 1 25.47 45.306v12.499l10.348 5.39 10.553-5.391V328.61a53.03 53.03 0 0 0-25.47-45.305z" fill="#ffbd86"/><path d="m394.84 341.11v28.05l-95.485 4.673-95.485-4.673-3.37-15.993 3.37-12.057z" fill="#97da7b"/><path d="m373.94 341.11v28.05l10.45 3.007 10.45-3.007v-28.05z" fill="#80d261"/><g fill="#fed2a4"><path d="M191.74 193.52l-11.353-7.528a8.41 8.41 0 0 0-9.295 0l-11.353 7.528c-7.68 6.26-12.13 15.63-12.13 25.54v30.92h28.13 28.13v-30.92a32.93 32.93 0 0 0-12.129-25.54z"/><path d="M191.74 193.52l-11.353-7.528a8.41 8.41 0 0 0-9.295 0l-11.353 7.528c-7.68 6.26-12.13 15.63-12.13 25.54v30.92l28.13 2.687 28.13-2.687v-30.92a32.93 32.93 0 0 0-12.129-25.54z"/></g><path d="M203.87 219.06v30.92l-10.45 2.687-10.45-2.687v-30.92c0-9.91-4.45-19.28-12.13-25.54l-5.55-3.68 5.803-3.848a8.41 8.41 0 0 1 9.295 0l11.353 7.528c7.679 6.26 12.129 15.63 12.129 25.54z" fill="#ffbd86"/><path d="M147.61 249.98h56.26V465h-56.26z" fill="#ffe5c2"/><path d="M182.97 249.98h20.9V465h-20.9z" fill="#fed2a4"/><path d="M394.84 369.16V465h-27.89l-7.5-3-7.5 3h-34.17l-21.98-4-21.98 4H235.1l-7.5-2.25-7.5 2.25h-37.33v-86.81a9.03 9.03 0 0 1 9.03-9.03z" fill="#fff3de"/><path d="M373.94 369.16h20.9V465h-20.9z" fill="#ffe5c2"/><path d="M235.1 425.64V465h-15v-39.36c0-4.14 3.36-7.5 7.5-7.5s7.5 3.36 7.5 7.5zm131.85 0V465h-15v-39.36c0-4.14 3.36-7.5 7.5-7.5s7.5 3.36 7.5 7.5z" fill="#b87d72"/><path d="M317.78 424.97V465h-43.96v-40.03c0-12.14 9.84-21.98 21.98-21.98a21.9 21.9 0 0 1 15.54 6.44c3.98 3.97 6.44 9.47 6.44 15.54z" fill="#c38f86"/><path d="M311.34 409.43a21.9 21.9 0 0 0-15.54-6.44 21.92 21.92 0 0 0-8.522 1.714c2.642 1.113 5.022 2.728 7.021 4.726 3.98 3.97 6.44 9.47 6.44 15.54V465h17.041v-40.03c0-6.07-2.46-11.57-6.44-15.54z" fill="#b87d72"/><path d="M268.349 106.716h-7.953v-7.952a7.5 7.5 0 1 0-15 0v7.952h-7.952a7.5 7.5 0 1 0 0 15h7.952v7.953a7.5 7.5 0 1 0 15 0v-7.953h7.953a7.5 7.5 0 1 0 0-15z" fill="#ffe177"/><g fill="#ffd15b"><circle cx="252.896" cy="175.406" r="7.508"/><circle cx="302.689" cy="146.176" r="7.508"/></g><path d="m183.24 249.98v40.83c0 4.14-3.36 7.5-7.5 7.5s-7.5-3.36-7.5-7.5v-40.83z" fill="#b87d72"/></svg>